<svg xmlns="http://www.w3.org/2000/svg" width="16" height="16" fill="none"><path d="M5.5 15h9c.275 0 .5-.225.5-.5V5h-1.5c-.827 0-1.5-.673-1.5-1.5V1H5.5c-.275 0-.5.225-.5.5v13c0 .275.225.5.5.5z" fill="#fff"/><path d="M15 4v-.086a.496.496 0 0 0-.146-.353L13 1.707V3.5c0 .275.225.5.5.5H15z" fill="#fff"/><path opacity=".67" fill-rule="evenodd" clip-rule="evenodd" d="M15.56 2.853 13.146.44a1.51 1.51 0 0 0-1.06-.44H5.5C4.673 0 4 .673 4 1.5v13c0 .827.673 1.5 1.5 1.5h9c.827 0 1.5-.673 1.5-1.5V3.914c0-.4-.156-.777-.44-1.06v-.001zm-.707.708c.095.094.147.22.147.353V4h-1.5a.501.501 0 0 1-.5-.5V1.707l1.854 1.854h-.001zM5.5 15h9c.275 0 .5-.225.5-.5V5h-1.5c-.827 0-1.5-.673-1.5-1.5V1H5.5c-.275 0-.5.225-.5.5v13c0 .276.224.5.5.5z" fill="#605E5C"/><path d="M13.5 10h-3a.5.5 0 0 0 0 1h3a.5.5 0 0 0 0-1z" fill="#134A2C"/><path d="M13.5 8h-3a.5.5 0 0 0 0 1h3a.5.5 0 0 0 0-1z" fill="#21A366"/><path d="M13.5 6h-3a.5.5 0 0 0 0 1h3a.5.5 0 0 0 0-1z" fill="#33C481"/><path d="M1 13h7a1 1 0 0 0 1-1V5a1 1 0 0 0-1-1H1a1 1 0 0 0-1 1v7a1 1 0 0 0 1 1z" fill="#107C41"/><path d="M5.413 11 2.766 6h.823l2.69 5h-.866z" fill="#fff"/><path d="m3.632 11 2.647-5h-.823l-2.69 5h.866z" fill="#fff"/></svg>