<svg xmlns="http://www.w3.org/2000/svg" width="16" height="16" fill="none"><path d="M2.5 14h11c.275 0 .5-.225.5-.5v-11c0-.275-.225-.5-.5-.5h-11c-.275 0-.5.225-.5.5v11c0 .275.225.5.5.5z" fill="#fff"/><path clip-rule="evenodd" d="m9.278 8.63-.608.846-1.285-1.684a1 1 0 0 0-1.59 0l-1.605 2.1a1 1 0 0 0 .795 1.608h6.029a1 1 0 0 0 .81-1.584l-.923-1.286a1 1 0 0 0-1.624 0z" stroke="#A6CCC3"/><path clip-rule="evenodd" d="M10.5 6.5a1 1 0 1 0 0-2 1 1 0 0 0 0 2z" stroke="#FF9810"/><path opacity=".67" fill-rule="evenodd" clip-rule="evenodd" d="M2.5 15h11c.827 0 1.5-.673 1.5-1.5v-11c0-.827-.673-1.5-1.5-1.5h-11C1.673 1 1 1.673 1 2.5v11c0 .827.673 1.5 1.5 1.5zM2 2.5a.5.5 0 0 1 .5-.5h11a.5.5 0 0 1 .5.5v11a.5.5 0 0 1-.5.5h-11a.5.5 0 0 1-.5-.5v-11z" fill="#605E5C"/></svg>