<svg xmlns="http://www.w3.org/2000/svg" width="16" height="16" fill="none"><path d="M5.5 15h9c.275 0 .5-.225.5-.5V5h-1.5c-.827 0-1.5-.673-1.5-1.5V1H5.5c-.275 0-.5.225-.5.5v13c0 .275.225.5.5.5z" fill="#fff"/><path d="M15 4v-.086a.496.496 0 0 0-.146-.353L13 1.707V3.5c0 .275.225.5.5.5H15z" fill="#fff"/><path opacity=".67" fill-rule="evenodd" clip-rule="evenodd" d="M15.56 2.853 13.146.44a1.51 1.51 0 0 0-1.06-.44H5.5C4.673 0 4 .673 4 1.5v13c0 .827.673 1.5 1.5 1.5h9c.827 0 1.5-.673 1.5-1.5V3.914c0-.4-.156-.777-.44-1.06v-.001zm-.707.708c.095.094.147.22.147.353V4h-1.5a.501.501 0 0 1-.5-.5V1.707l1.854 1.854h-.001zM5.5 15h9c.275 0 .5-.225.5-.5V5h-1.5c-.827 0-1.5-.673-1.5-1.5V1H5.5c-.275 0-.5.225-.5.5v13c0 .276.224.5.5.5z" fill="#605E5C"/><path d="M13.5 10H10v1h3.5a.5.5 0 0 0 0-1z" fill="#185ABD"/><path d="M13.5 8H10v1h3.5a.5.5 0 0 0 0-1z" fill="#2B7CD3"/><path d="M13.5 6H10v1h3.5a.5.5 0 0 0 0-1z" fill="#41A5EE"/><path d="M1 13h7a1 1 0 0 0 1-1V5a1 1 0 0 0-1-1H1a1 1 0 0 0-1 1v7a1 1 0 0 0 1 1z" fill="#185ABD"/><path d="M5.855 10.972h-.576l-.765-3.755-.82 3.773H3.22L2.006 6l.732.002.698 3.308L4.154 6h.706l.808 3.298.606-3.267.707.005-1.126 4.936z" fill="#fff"/></svg>