<svg width="650" height="532" viewBox="0 0 650 532" fill="none" xmlns="http://www.w3.org/2000/svg">
<rect width="650" height="532" rx="30" fill="#557970"/>
<rect x="32" y="37" width="586" height="458" rx="23" stroke="white" stroke-width="14" stroke-linejoin="round"/>
<path d="M71.52 168C69.54 168 67.875 167.325 66.525 165.975C65.175 164.625 64.5 162.96 64.5 160.98V69.585C64.5 67.515 65.175 65.85 66.525 64.59C67.875 63.24 69.54 62.565 71.52 62.565H103.785C109.905 62.565 115.26 63.78 119.85 66.21C124.53 68.55 128.175 71.835 130.785 76.065C133.485 80.295 134.835 85.155 134.835 90.645C134.835 95.055 133.62 99.06 131.19 102.66C128.85 106.17 125.61 108.96 121.47 111.03C127.41 112.47 132.18 115.305 135.78 119.535C139.38 123.765 141.18 129.3 141.18 136.14C141.18 142.35 139.695 147.84 136.725 152.61C133.845 157.38 129.795 161.16 124.575 163.95C119.355 166.65 113.37 168 106.62 168H71.52ZM78.54 155.04H106.62C110.76 155.04 114.405 154.32 117.555 152.88C120.705 151.44 123.18 149.325 124.98 146.535C126.78 143.745 127.68 140.28 127.68 136.14C127.68 132.27 126.78 129.075 124.98 126.555C123.18 124.035 120.705 122.145 117.555 120.885C114.405 119.535 110.76 118.86 106.62 118.86H78.54V155.04ZM78.54 105.9H103.785C108.915 105.9 113.1 104.64 116.34 102.12C119.67 99.6 121.335 95.775 121.335 90.645C121.335 85.515 119.67 81.735 116.34 79.305C113.1 76.785 108.915 75.525 103.785 75.525H78.54V105.9ZM206.672 169.35C199.382 169.35 192.542 168 186.152 165.3C179.852 162.51 174.317 158.685 169.547 153.825C164.867 148.875 161.177 143.115 158.477 136.545C155.867 129.975 154.562 122.865 154.562 115.215C154.562 107.655 155.867 100.635 158.477 94.155C161.177 87.585 164.867 81.87 169.547 77.01C174.317 72.06 179.852 68.19 186.152 65.4C192.452 62.61 199.292 61.215 206.672 61.215C213.602 61.215 219.542 62.115 224.492 63.915C229.532 65.715 234.572 68.685 239.612 72.825C240.332 73.365 240.872 73.95 241.232 74.58C241.682 75.12 241.952 75.705 242.042 76.335C242.222 76.875 242.312 77.55 242.312 78.36C242.312 80.07 241.682 81.51 240.422 82.68C239.252 83.76 237.812 84.39 236.102 84.57C234.392 84.66 232.727 84.075 231.107 82.815C227.777 79.935 224.312 77.73 220.712 76.2C217.202 74.67 212.522 73.905 206.672 73.905C201.362 73.905 196.367 74.985 191.687 77.145C187.007 79.305 182.867 82.275 179.267 86.055C175.757 89.835 173.012 94.245 171.032 99.285C169.052 104.235 168.062 109.545 168.062 115.215C168.062 120.975 169.052 126.375 171.032 131.415C173.012 136.365 175.757 140.73 179.267 144.51C182.867 148.29 187.007 151.26 191.687 153.42C196.367 155.49 201.362 156.525 206.672 156.525C211.262 156.525 215.582 155.76 219.632 154.23C223.772 152.61 227.732 150.405 231.512 147.615C233.132 146.445 234.707 145.95 236.237 146.13C237.857 146.22 239.207 146.85 240.287 148.02C241.367 149.1 241.907 150.63 241.907 152.61C241.907 153.51 241.727 154.41 241.367 155.31C241.007 156.12 240.467 156.885 239.747 157.605C234.887 161.475 229.667 164.4 224.087 166.38C218.597 168.36 212.792 169.35 206.672 169.35ZM71.52 319C69.54 319 67.875 318.325 66.525 316.975C65.175 315.625 64.5 313.96 64.5 311.98V220.585C64.5 218.515 65.175 216.85 66.525 215.59C67.875 214.24 69.54 213.565 71.52 213.565H98.52C105.27 213.565 111.255 215.05 116.475 218.02C121.695 220.99 125.745 225.13 128.625 230.44C131.595 235.66 133.08 241.69 133.08 248.53C133.08 255.1 131.595 260.95 128.625 266.08C125.745 271.21 121.695 275.215 116.475 278.095C111.255 280.975 105.27 282.415 98.52 282.415H78.54V311.98C78.54 313.96 77.865 315.625 76.515 316.975C75.255 318.325 73.59 319 71.52 319ZM78.54 269.455H98.52C102.66 269.455 106.305 268.555 109.455 266.755C112.605 264.955 115.08 262.48 116.88 259.33C118.68 256.18 119.58 252.58 119.58 248.53C119.58 244.21 118.68 240.43 116.88 237.19C115.08 233.86 112.605 231.25 109.455 229.36C106.305 227.47 102.66 226.525 98.52 226.525H78.54V269.455ZM155.631 319C153.651 319 151.986 318.325 150.636 316.975C149.286 315.625 148.611 313.96 148.611 311.98V220.585C148.611 218.515 149.286 216.85 150.636 215.59C151.986 214.24 153.651 213.565 155.631 213.565H216.651C218.721 213.565 220.386 214.195 221.646 215.455C222.906 216.625 223.536 218.2 223.536 220.18C223.536 222.07 222.906 223.6 221.646 224.77C220.386 225.94 218.721 226.525 216.651 226.525H162.651V259.33H201.396C203.466 259.33 205.131 259.96 206.391 261.22C207.651 262.39 208.281 263.92 208.281 265.81C208.281 267.7 207.651 269.275 206.391 270.535C205.131 271.705 203.466 272.29 201.396 272.29H162.651V306.04H216.651C218.721 306.04 220.386 306.625 221.646 307.795C222.906 308.965 223.536 310.495 223.536 312.385C223.536 314.365 222.906 315.985 221.646 317.245C220.386 318.415 218.721 319 216.651 319H155.631ZM274.323 319C272.343 319 270.678 318.325 269.328 316.975C267.978 315.625 267.303 313.96 267.303 311.98V213.565H281.343V311.98C281.343 313.96 280.668 315.625 279.318 316.975C277.968 318.325 276.303 319 274.323 319ZM238.143 226.525C236.253 226.525 234.678 225.94 233.418 224.77C232.248 223.51 231.663 221.935 231.663 220.045C231.663 218.155 232.248 216.625 233.418 215.455C234.678 214.195 236.253 213.565 238.143 213.565H310.368C312.258 213.565 313.788 214.195 314.958 215.455C316.218 216.625 316.848 218.155 316.848 220.045C316.848 221.935 316.218 223.51 314.958 224.77C313.788 225.94 312.258 226.525 310.368 226.525H238.143ZM95.685 470C93.705 470 92.04 469.325 90.69 467.975C89.34 466.625 88.665 464.96 88.665 462.98V364.565H102.705V462.98C102.705 464.96 102.03 466.625 100.68 467.975C99.33 469.325 97.665 470 95.685 470ZM59.505 377.525C57.615 377.525 56.04 376.94 54.78 375.77C53.61 374.51 53.025 372.935 53.025 371.045C53.025 369.155 53.61 367.625 54.78 366.455C56.04 365.195 57.615 364.565 59.505 364.565H131.73C133.62 364.565 135.15 365.195 136.32 366.455C137.58 367.625 138.21 369.155 138.21 371.045C138.21 372.935 137.58 374.51 136.32 375.77C135.15 376.94 133.62 377.525 131.73 377.525H59.505ZM160.773 470C158.793 470 157.128 469.325 155.778 467.975C154.428 466.625 153.753 464.96 153.753 462.98V371.585C153.753 369.515 154.428 367.85 155.778 366.59C157.128 365.24 158.793 364.565 160.773 364.565H185.073C191.823 364.565 197.808 366.005 203.028 368.885C208.248 371.675 212.298 375.545 215.178 380.495C218.148 385.445 219.633 391.205 219.633 397.775C219.633 403.895 218.148 409.34 215.178 414.11C212.298 418.88 208.248 422.615 203.028 425.315C197.808 428.015 191.823 429.365 185.073 429.365H167.793V462.98C167.793 464.96 167.118 466.625 165.768 467.975C164.508 469.325 162.843 470 160.773 470ZM216.798 470C215.538 470 214.368 469.73 213.288 469.19C212.298 468.65 211.443 467.795 210.723 466.625L186.423 427.475L200.058 423.56L222.198 459.2C223.818 461.81 224.043 464.285 222.873 466.625C221.703 468.875 219.678 470 216.798 470ZM167.793 416.405H185.073C189.213 416.405 192.858 415.64 196.008 414.11C199.158 412.49 201.633 410.285 203.433 407.495C205.233 404.615 206.133 401.375 206.133 397.775C206.133 393.815 205.233 390.305 203.433 387.245C201.633 384.185 199.158 381.8 196.008 380.09C192.858 378.38 189.213 377.525 185.073 377.525H167.793V416.405ZM246.071 470C244.091 470 242.426 469.325 241.076 467.975C239.726 466.625 239.051 464.96 239.051 462.98V371.585C239.051 369.515 239.726 367.85 241.076 366.59C242.426 365.24 244.091 364.565 246.071 364.565H307.091C309.161 364.565 310.826 365.195 312.086 366.455C313.346 367.625 313.976 369.2 313.976 371.18C313.976 373.07 313.346 374.6 312.086 375.77C310.826 376.94 309.161 377.525 307.091 377.525H253.091V410.33H291.836C293.906 410.33 295.571 410.96 296.831 412.22C298.091 413.39 298.721 414.92 298.721 416.81C298.721 418.7 298.091 420.275 296.831 421.535C295.571 422.705 293.906 423.29 291.836 423.29H253.091V457.04H307.091C309.161 457.04 310.826 457.625 312.086 458.795C313.346 459.965 313.976 461.495 313.976 463.385C313.976 465.365 313.346 466.985 312.086 468.245C310.826 469.415 309.161 470 307.091 470H246.071ZM329.392 470C326.872 470 324.937 468.92 323.587 466.76C322.237 464.6 322.102 462.305 323.182 459.875L361.117 369.29C362.467 366.14 364.672 364.565 367.732 364.565C370.972 364.565 373.177 366.14 374.347 369.29L412.417 460.145C413.407 462.665 413.227 464.96 411.877 467.03C410.617 469.01 408.682 470 406.072 470C404.722 470 403.417 469.64 402.157 468.92C400.987 468.11 400.132 467.03 399.592 465.68L366.112 382.52H369.892L335.872 465.68C335.242 467.12 334.297 468.2 333.037 468.92C331.867 469.64 330.652 470 329.392 470ZM336.547 446.78L341.947 435.17H394.867L400.267 446.78H336.547ZM448.873 470C446.893 470 445.228 469.325 443.878 467.975C442.528 466.625 441.853 464.96 441.853 462.98V364.565H455.893V462.98C455.893 464.96 455.218 466.625 453.868 467.975C452.518 469.325 450.853 470 448.873 470ZM412.693 377.525C410.803 377.525 409.228 376.94 407.968 375.77C406.798 374.51 406.213 372.935 406.213 371.045C406.213 369.155 406.798 367.625 407.968 366.455C409.228 365.195 410.803 364.565 412.693 364.565H484.918C486.808 364.565 488.338 365.195 489.508 366.455C490.768 367.625 491.398 369.155 491.398 371.045C491.398 372.935 490.768 374.51 489.508 375.77C488.338 376.94 486.808 377.525 484.918 377.525H412.693ZM536.334 471.35C530.574 471.35 525.084 470.45 519.864 468.65C514.644 466.85 510.099 464.33 506.229 461.09C502.359 457.85 499.524 454.115 497.724 449.885C496.824 447.995 496.824 446.24 497.724 444.62C498.714 443 500.334 441.965 502.584 441.515C504.204 441.155 505.779 441.425 507.309 442.325C508.929 443.135 510.144 444.395 510.954 446.105C512.034 448.355 513.789 450.425 516.219 452.315C518.739 454.205 521.754 455.735 525.264 456.905C528.774 458.075 532.464 458.66 536.334 458.66C540.654 458.66 544.614 457.985 548.214 456.635C551.904 455.285 554.874 453.35 557.124 450.83C559.374 448.22 560.499 445.025 560.499 441.245C560.499 436.475 558.609 432.2 554.829 428.42C551.139 424.64 545.019 422.3 536.469 421.4C525.309 420.32 516.534 417.035 510.144 411.545C503.754 406.055 500.559 399.26 500.559 391.16C500.559 385.22 502.224 380.18 505.554 376.04C508.884 371.9 513.384 368.75 519.054 366.59C524.814 364.43 531.204 363.35 538.224 363.35C543.714 363.35 548.484 364.115 552.534 365.645C556.674 367.175 560.274 369.29 563.334 371.99C566.394 374.69 569.049 377.885 571.299 381.575C572.559 383.555 573.054 385.445 572.784 387.245C572.604 388.955 571.749 390.305 570.219 391.295C568.509 392.375 566.664 392.6 564.684 391.97C562.704 391.34 561.219 390.17 560.229 388.46C558.789 385.85 557.034 383.645 554.964 381.845C552.894 380.045 550.464 378.65 547.674 377.66C544.884 376.58 541.599 376.04 537.819 376.04C531.159 375.95 525.579 377.21 521.079 379.82C516.579 382.34 514.329 386.255 514.329 391.565C514.329 394.265 515.004 396.875 516.354 399.395C517.794 401.825 520.359 403.94 524.049 405.74C527.829 407.54 533.229 408.8 540.249 409.52C550.959 410.6 559.284 413.885 565.224 419.375C571.254 424.775 574.269 431.93 574.269 440.84C574.269 445.97 573.189 450.425 571.029 454.205C568.959 457.985 566.124 461.18 562.524 463.79C559.014 466.31 554.964 468.2 550.374 469.46C545.874 470.72 541.194 471.35 536.334 471.35Z" fill="white"/>
</svg>
